Coordinates
version=1
nRows=24
nColumns=24
inDegrees=yes

Units are S.I. units (second, meters, Newtons, ...)
Angles are in degrees.

endheader
time	pelvis_tilt	pelvis_list	pelvis_rotation	pelvis_tx	pelvis_ty	pelvis_tz	hip_flexion_r	hip_adduction_r	hip_rotation_r	knee_angle_r	ankle_angle_r	subtalar_angle_r	mtp_angle_r	hip_flexion_l	hip_adduction_l	hip_rotation_l	knee_angle_l	ankle_angle_l	subtalar_angle_l	mtp_angle_l	lumbar_extension	lumbar_bending	lumbar_rotation
      4.77000000	     14.06937809	      8.76051855	     -3.94853077	      0.75205027	      0.75212330	     -0.29849915	      7.03368778	    -12.12909250	      0.90920497	    -64.05066366	     16.99520975	    -24.31487649	      0.00000000	     -4.55390725	     16.36114328	      3.70326561	    -20.05650626	     25.08798486	      1.20614504	      0.00000000	    -30.49314172	     -6.39903700	      2.08774121
      4.77500000	     13.97464255	      8.80007906	     -3.67814160	      0.75947794	      0.75273179	     -0.29870548	      8.01750796	    -12.07423028	      0.85958696	    -63.12996806	     17.50794669	    -24.75088479	      0.00000000	     -5.53094416	     16.39606389	      4.28283386	    -19.30983893	     25.20479089	      1.13563849	      0.00000000	    -30.45471627	     -6.27468470	      1.50923982
      4.78000000	     13.88683819	      8.83432530	     -3.37652545	      0.76687654	      0.75328248	     -0.29890931	      8.95015324	    -12.02661310	      0.75516713	    -62.11367094	     17.98919155	    -24.99979892	      0.00000000	     -6.51479840	     16.40204457	      4.83896172	    -18.56718664	     25.31965557	      1.10372641	      0.00000000	    -30.43894274	     -6.13480558	      0.90485840
      4.78500000	     13.80386211	      8.86215200	     -3.05433216	      0.77428315	      0.75377333	     -0.29908454	      9.82608366	    -11.98395104	      0.60924021	    -60.99479064	     18.43972197	    -25.05519430	      0.00000000	     -7.50127225	     16.37578039	      5.35301495	    -17.83694545	     25.43664379	      1.12590868	      0.00000000	    -30.43553110	     -5.99173892	      0.28619436
      4.79000000	     13.74557939	      8.88761041	     -2.72415547	      0.78167988	      0.75421960	     -0.29924370	     10.63175658	    -11.95358393	      0.43491011	    -59.78460582	     18.85302922	    -24.86947395	      0.00000000	     -8.51884306	     16.33038994	      5.85375621	    -17.09645201	     25.53968123	      1.17091897	      0.00000000	    -30.46872695	     -5.84667593	     -0.33227969
      4.79500000	     13.65684791	      8.91374176	     -2.34444857	      0.78906596	      0.75455451	     -0.29936576	     11.41237892	    -11.93432731	      0.18070045	    -58.47744476	     19.27659735	    -24.62184749	      0.00000000	     -9.47036525	     16.24702314	      6.23959879	    -16.42802678	     25.68928373	      1.34411443	      0.00000000	    -30.48086690	     -5.70063069	     -1.00097137
      4.80000000	     13.59423792	      8.93934882	     -1.94969084	      0.79644581	      0.75484272	     -0.29949499	     12.11392778	    -11.93449730	     -0.10787725	    -57.08054145	     19.68069522	    -24.13579161	      0.00000000	    -10.44864571	     16.14661679	      6.61120564	    -15.76305614	     25.83624855	      1.55352004	      0.00000000	    -30.53173680	     -5.54527277	     -1.67162239
      4.80500000	     13.53891009	      8.97134944	     -1.53422660	      0.80381415	      0.75505927	     -0.29959204	     12.75639875	    -11.95773066	     -0.44745125	    -55.59595327	     20.08254153	    -23.48527056	      0.00000000	    -11.41464405	     16.02926132	      6.93240455	    -15.13764448	     25.99209258	      1.81388024	      0.00000000	    -30.59947762	     -5.40067894	     -2.35690100
      4.81000000	     13.49332094	      9.01043934	     -1.09560294	      0.81116520	      0.75520366	     -0.29968350	     13.33677768	    -12.00803282	     -0.83516973	    -54.02910983	     20.49107560	    -22.65786560	      0.00000000	    -12.37121025	     15.89884517	      7.21756900	    -14.55212996	     26.16212248	      2.12511210	      0.00000000	    -30.69005594	     -5.25837198	     -3.05809601
      4.81500000	     13.48033729	      9.07596342	     -0.66041736	      0.81849571	      0.75528510	     -0.29974067	     13.83959255	    -12.09806910	     -1.23401752	    -52.39017281	     20.92739325	    -21.62275260	      0.00000000	    -13.34753448	     15.78126923	      7.50051217	    -13.99233545	     26.34709295	      2.47503477	      0.00000000	    -30.82715335	     -5.14911450	     -3.75905078
      4.82000000	     13.42038551	      9.11876609	     -0.15587826	      0.82583029	      0.75527558	     -0.29983237	     14.31194689	    -12.19043559	     -1.74982407	    -50.64307391	     21.32366103	    -20.51922021	      0.00000000	    -14.22893642	     15.61089033	      7.69179286	    -13.53141475	     26.54440058	      2.86132699	      0.00000000	    -30.91746175	     -4.99371883	     -4.49465995
      4.82500000	     13.39301804	      9.19878739	      0.35234242	      0.83314033	      0.75521191	     -0.29988398	     14.70239767	    -12.33272711	     -2.27951825	    -48.83068255	     21.75951936	    -19.20311109	      0.00000000	    -15.13069656	     15.45951878	      7.89798104	    -13.09734733	     26.74630570	      3.29803472	      0.00000000	    -31.05811994	     -4.88493424	     -5.23037595
      4.83000000	     13.37827321	      9.28921825	      0.86805226	      0.84043801	      0.75507693	     -0.29992586	     15.02503409	    -12.50255734	     -2.85905563	    -46.94427820	     22.20632744	    -17.73274466	      0.00000000	    -16.01023337	     15.30665087	      8.09363380	    -12.73564609	     26.97738670	      3.74159302	      0.00000000	    -31.21632534	     -4.78287451	     -5.97993660
      4.83500000	     13.34311006	      9.38297816	      1.41041844	      0.84773771	      0.75486883	     -0.29998029	     15.30449647	    -12.68706389	     -3.48564360	    -44.97818963	     22.61887332	    -16.16449436	      0.00000000	    -16.84076475	     15.13899481	      8.27109983	    -12.42995009	     27.20154163	      4.20169797	      0.00000000	    -31.35621754	     -4.67225089	     -6.72597009
      4.84000000	     13.37582646	      9.54089049	      1.93471486	      0.85501995	      0.75463818	     -0.29998685	     15.46710912	    -12.94693921	     -4.12529670	    -42.96812646	     23.10282639	    -14.37127884	      0.00000000	    -17.73657414	     15.02162116	      8.50238062	    -12.14180591	     27.39787762	      4.67824013	      0.00000000	    -31.58248550	     -4.64031315	     -7.46782539
      4.84500000	     13.34449739	      9.66173413	      2.52510308	      0.86229888	      0.75431359	     -0.30000750	     15.61270700	    -13.17300900	     -4.84835965	    -40.87133156	     23.49755487	    -12.55470367	      0.00000000	    -18.50442616	     14.83915755	      8.70934683	    -11.98182896	     27.65706220	      5.17574266	      0.00000000	    -31.74060722	     -4.54987233	     -8.23472771
      4.85000000	     13.33378480	      9.80354795	      3.11115378	      0.86960820	      0.75395033	     -0.30001860	     15.67702272	    -13.43090602	     -5.62813996	    -38.72568086	     23.89049895	    -10.59575428	      0.00000000	    -19.27855112	     14.66323847	      8.91006711	    -11.85627742	     27.89709069	      5.67518717	      0.00000000	    -31.91738331	     -4.48053361	     -8.98892779
      4.85500000	     13.32167085	      9.94906542	      3.70897053	      0.87693003	      0.75353464	     -0.30001025	     15.67993044	    -13.68788323	     -6.44499000	    -36.53615913	     24.24471465	     -8.55598800	      0.00000000	    -20.01979708	     14.47343556	      9.11635240	    -11.79658949	     28.15693105	      6.17242102	      0.00000000	    -32.09193242	     -4.41130214	     -9.74419532
      4.86000000	     13.26912331	     10.05721013	      4.34078496	      0.88425574	      0.75303393	     -0.29997198	     15.65985699	    -13.89088005	     -7.29201591	    -34.30917696	     24.53659993	     -6.49706587	      0.00000000	    -20.65694468	     14.22605048	      9.33502895	    -11.85959413	     28.51222972	      6.69854762	      0.00000000	    -32.21755189	     -4.30308886	    -10.48702287
      4.86500000	     13.28976685	     10.23584277	      4.93438816	      0.89166595	      0.75256695	     -0.29989128	     15.51139546	    -14.16747880	     -8.18869366	    -32.08134215	     24.82954089	     -4.27104182	      0.00000000	    -21.40351138	     14.02883032	      9.56518998	    -11.86897990	     28.71623917	      7.22793282	      0.00000000	    -32.41702557	     -4.28090763	    -11.21348488
      4.87000000	     13.21750331	     10.33104693	      5.58143581	      0.89907717	      0.75197408	     -0.29979098	     15.39737631	    -14.32603620	     -9.07394422	    -29.83198158	     25.01366541	     -2.17026317	      0.00000000	    -21.95631075	     13.73406441	      9.80395546	    -12.06078320	     29.09170554	      7.78491006	      0.00000000	    -32.50211301	     -4.17006824	    -11.89212748
      4.87500000	     13.19522065	     10.45624649	      6.19972738	      0.90657624	      0.75139598	     -0.29965754	     15.19084959	    -14.50847307	    -10.00907221	    -27.62427460	     25.18347997	      0.05767462	      0.00000000	    -22.56787817	     13.45113859	     10.03334653	    -12.24455704	     29.39012791	      8.37085860	      0.00000000	    -32.62590060	     -4.09673665	    -12.56597293
      4.88000000	     13.21535002	     10.60702217	      6.78065613	      0.91415270	      0.75082598	     -0.29946869	     14.91496315	    -14.69040947	    -10.92129710	    -25.48638147	     25.28560689	      2.28941964	      0.00000000	    -23.22913653	     13.17995653	     10.25707185	    -12.41680574	     29.60963886	      8.93303379	      0.00000000	    -32.78064429	     -4.06149128	    -13.23164996
      4.88500000	     13.14835823	     10.67129203	      7.40880493	      0.92177048	      0.75015334	     -0.29924586	     14.68053388	    -14.74814871	    -11.78906729	    -23.38037501	     25.33283351	      4.33094065	      0.00000000	    -23.70091468	     12.81178366	     10.50407619	    -12.77236674	     29.95704717	      9.54254032	      0.00000000	    -32.82132374	     -3.95176615	    -13.79714553
